<mxfile host="app.diagrams.net" agent="Mozilla/5.0 (Windows NT 10.0; Win64; x64) AppleWebKit/537.36 (KHTML, like Gecko) Chrome/140.0.0.0 Safari/537.36" version="28.2.3">
  <diagram name="Trang-1" id="EMKM8xa1IKF_VMBD7dv5">
    <mxGraphModel dx="1042" dy="527" grid="1" gridSize="10" guides="1" tooltips="1" connect="1" arrows="1" fold="1" page="1" pageScale="1" pageWidth="827" pageHeight="1169" math="0" shadow="0">
      <root>
        <mxCell id="0" />
        <mxCell id="1" parent="0" />
        <mxCell id="NaPMQ0z7rrL7yGvfFLOs-3" value="" style="image;html=1;image=img/lib/clip_art/networking/Wireless_Router_N_128x128.png" parent="1" vertex="1">
          <mxGeometry x="380" y="30" width="80" height="80" as="geometry" />
        </mxCell>
        <mxCell id="NaPMQ0z7rrL7yGvfFLOs-5" value="" style="image;html=1;image=img/lib/clip_art/networking/Router_128x128.png" parent="1" vertex="1">
          <mxGeometry x="380" y="170" width="80" height="80" as="geometry" />
        </mxCell>
        <mxCell id="NaPMQ0z7rrL7yGvfFLOs-6" value="" style="endArrow=none;html=1;rounded=0;" parent="1" source="NaPMQ0z7rrL7yGvfFLOs-5" target="NaPMQ0z7rrL7yGvfFLOs-3" edge="1">
          <mxGeometry width="50" height="50" relative="1" as="geometry">
            <mxPoint x="390" y="200" as="sourcePoint" />
            <mxPoint x="440" y="150" as="targetPoint" />
          </mxGeometry>
        </mxCell>
        <mxCell id="NaPMQ0z7rrL7yGvfFLOs-7" value="" style="image;html=1;image=img/lib/clip_art/computers/Laptop_128x128.png" parent="1" vertex="1">
          <mxGeometry x="100" y="350" width="80" height="80" as="geometry" />
        </mxCell>
        <mxCell id="NaPMQ0z7rrL7yGvfFLOs-9" value="" style="shape=image;html=1;verticalAlign=top;verticalLabelPosition=bottom;labelBackgroundColor=#ffffff;imageAspect=0;aspect=fixed;image=https://icons.diagrams.net/icon-cache1/Online_Marketing_Hand_Drawn_vol_2-2935/global__phone__smart__mobile__international__internet__network-602.svg;imageBackground=#2AE9FF;" parent="1" vertex="1">
          <mxGeometry x="260" y="350" width="52" height="52" as="geometry" />
        </mxCell>
        <mxCell id="NaPMQ0z7rrL7yGvfFLOs-10" value="" style="endArrow=none;dashed=1;html=1;dashPattern=1 3;strokeWidth=2;rounded=0;exitX=0.5;exitY=0;exitDx=0;exitDy=0;entryX=0.5;entryY=1;entryDx=0;entryDy=0;" parent="1" source="NaPMQ0z7rrL7yGvfFLOs-7" target="NaPMQ0z7rrL7yGvfFLOs-5" edge="1">
          <mxGeometry width="50" height="50" relative="1" as="geometry">
            <mxPoint x="390" y="300" as="sourcePoint" />
            <mxPoint x="420" y="250" as="targetPoint" />
            <Array as="points">
              <mxPoint x="140" y="280" />
              <mxPoint x="400" y="280" />
            </Array>
          </mxGeometry>
        </mxCell>
        <mxCell id="NaPMQ0z7rrL7yGvfFLOs-11" value="" style="endArrow=none;dashed=1;html=1;dashPattern=1 3;strokeWidth=2;rounded=0;entryX=0.5;entryY=1;entryDx=0;entryDy=0;" parent="1" source="NaPMQ0z7rrL7yGvfFLOs-9" target="NaPMQ0z7rrL7yGvfFLOs-5" edge="1">
          <mxGeometry width="50" height="50" relative="1" as="geometry">
            <mxPoint x="390" y="300" as="sourcePoint" />
            <mxPoint x="440" y="250" as="targetPoint" />
            <Array as="points">
              <mxPoint x="410" y="280" />
            </Array>
          </mxGeometry>
        </mxCell>
        <mxCell id="NaPMQ0z7rrL7yGvfFLOs-12" value="&lt;div&gt;Tìm hiểu về các chuẩn Wi-Fi (802.11a/b/g/n/ac/ax) và sự khác biệt giữa chúng.&lt;/div&gt;&lt;span style=&quot;white-space: pre;&quot;&gt;&#x9;&lt;/span&gt;-WiFi 802.11 chuẩn a/b/g/n/ac là một chuẩn nhỏ của chuẩn kết nối 802.11.&lt;div&gt;&amp;nbsp;&lt;span style=&quot;white-space: pre;&quot;&gt;&#x9;&lt;/span&gt;-Đây là một tập các chuẩn để đặc tả thông số kỹ thuật của mạng không dây do tổ chức IEEE (Institute of Electrical and Electronic Engineers) tạo ra.&lt;/div&gt;&lt;div&gt;Các chuẩn Wi-Fi 802.11a/b/g/n/ac/ax (hay Wi-Fi 5 và Wi-Fi 6) khác nhau chủ yếu ở tốc độ dữ liệu, băng tần hoạt động, phạm vi phủ sóng và công nghệ sử dụng.&lt;/div&gt;&lt;div&gt;&amp;nbsp;Chuẩn cũ hơn (như b, g) có tốc độ thấp hơn và dễ nhiễu hơn do sử dụng băng tần 2.4 GHz, trong khi chuẩn mới hơn (như a, n, ac, ax) sử dụng băng tần 5 GHz hoặc cả hai,&amp;nbsp;&lt;/div&gt;&lt;div&gt;mang lại tốc độ cao hơn, phạm vi tốt hơn và hỗ trợ nhiều thiết bị hơn, đặc biệt là Wi-Fi 6 (802.11ax) còn nâng cao hiệu quả trong môi trường mạng đông đúc.&amp;nbsp;&lt;/div&gt;" style="text;html=1;align=left;verticalAlign=middle;resizable=0;points=[];autosize=1;strokeColor=none;fillColor=none;fontSize=16;" parent="1" vertex="1">
          <mxGeometry x="15" y="430" width="1260" height="130" as="geometry" />
        </mxCell>
      </root>
    </mxGraphModel>
  </diagram>
</mxfile>
